# xmcd
#
# Track frame offsets:
#	150
#	23757
#	44551
#	66376
#	82764
#	110134
#	139816
#	154887
#
# Disc length: 2339 seconds
#
# Revision: 1
# Processed by: cddbd v1.5.1PL0 Copyright (c) Steve Scherf et al.
# Submitted via: CDex 1.50Beta5
#
DISCID=6b092108
DTITLE=RIKUO - Mellow Blue
DYEAR=2003
DGENRE=Rock
TTITLE0=せつない幸せ
TTITLE1=公園はなかった
TTITLE2=ワイルドで行こう!
TTITLE3=キスしよう
TTITLE4=雨に濡れたい
TTITLE5=空と祈り
TTITLE6=メロディ
TTITLE7=夜霧よ今夜もありがとう
EXTD=
EXTT0=
EXTT1=
EXTT2=
EXTT3=
EXTT4=
EXTT5=
EXTT6=
EXTT7=
PLAYORDER=
